<svg id="Camada_1" data-name="Camada 1" xmlns="http://www.w3.org/2000/svg" xmlns:xlink="http://www.w3.org/1999/xlink" viewBox="0 0 950 950"><defs><style>.cls-1{fill:url(#Gradiente_sem_nome_317);}.cls-2{fill:url(#Gradiente_sem_nome_230);}.cls-3{fill:url(#Gradiente_sem_nome_318);}.cls-4{fill:url(#Gradiente_sem_nome_234);}.cls-5{fill:url(#Gradiente_sem_nome_236);}.cls-6{fill:none;stroke:#000;stroke-miterlimit:10;stroke-width:0.25px;}</style><linearGradient id="Gradiente_sem_nome_317" x1="264.16" y1="741.2" x2="737.81" y2="657.55" gradientUnits="userSpaceOnUse"><stop offset="0" stop-color="#b51f0b"/><stop offset="1" stop-color="#380400"/></linearGradient><linearGradient id="Gradiente_sem_nome_230" x1="209.53" y1="347.99" x2="689.46" y2="257.61" gradientUnits="userSpaceOnUse"><stop offset="0" stop-color="#e32213"/><stop offset="1" stop-color="#5f0f00"/></linearGradient><linearGradient id="Gradiente_sem_nome_318" x1="535.13" y1="850.96" x2="541.47" y2="510.12" gradientUnits="userSpaceOnUse"><stop offset="0" stop-color="#cb210f"/><stop offset="0.43" stop-color="#961808"/><stop offset="0.81" stop-color="#6e1202"/><stop offset="1" stop-color="#5f0f00"/></linearGradient><linearGradient id="Gradiente_sem_nome_234" x1="520.79" y1="339.64" x2="631.9" y2="627.19" gradientUnits="userSpaceOnUse"><stop offset="0" stop-color="#5f0f00"/><stop offset="0.47" stop-color="#9b1809"/><stop offset="1" stop-color="#e32213"/></linearGradient><linearGradient id="Gradiente_sem_nome_236" x1="392.41" y1="616.61" x2="640.48" y2="358.21" gradientUnits="userSpaceOnUse"><stop offset="0" stop-color="#e32213"/><stop offset="0.3" stop-color="#b81c0d"/><stop offset="0.77" stop-color="#781304"/><stop offset="1" stop-color="#5f0f00"/></linearGradient></defs><path class="cls-1" d="M728.75,610.15A186.89,186.89,0,0,1,710.33,699c-16.91,35.56-42.24,63.92-74.49,86.26A238.48,238.48,0,0,1,612,799.66a199.31,199.31,0,0,1-19.6,7.54l-1.16,0q-11.18.07-22.35.17l-52.12.51-43.2.5-81.68.8-144,1.78L304.5,688.19c32.72,0,56-.31,71.55-.59l37.21-.67q14.64-.27,29.27-.52l52.63-.86,7-.12c27.13-.47,26.44-.51,26.92-.48,7.08.37,14.17-.53,21.26-.41a4.3,4.3,0,0,0,1.88-.39,3.87,3.87,0,0,0,.91-.62c.49-.44,1-.89,1.44-1.33A203.46,203.46,0,0,0,711.32,538.27a209.59,209.59,0,0,1,9.56,25.46A184.73,184.73,0,0,1,728.75,610.15Z"/><path class="cls-2" d="M733,345.32c-.06,7-.73,42.3-19.58,81-.62,1.26-1.14,2.31-1.51,3A203.44,203.44,0,0,0,555,283.36c-.83-.7-1.67-1.4-2.52-2.07a8.27,8.27,0,0,0-5.63-1.77q-15.5,0-31,.05H479.81l-53.66,0-61.93.06c-26.7,0-65.5.19-117.24.68L304.5,154.09,490,153.18l13.56-.07c31.55-.15,37.65-.27,46.49-.26,10.25,0,24.83.16,42.73.82a222.33,222.33,0,0,1,78.86,50.55c10.89,10.87,37.45,38,51.89,82.32A189.47,189.47,0,0,1,733,345.32Z"/><path class="cls-3" d="M676.89,484.67a221.08,221.08,0,0,1,34.43,53.6A203.46,203.46,0,0,1,554.58,682.2c16.49-15.53,27.06-34.28,30.16-57,3.29-24.14-3-46-16.53-65.91-1.91-2.83-4.16-5.43-6.21-8.17a3.93,3.93,0,0,0-3.49-1.68c-5,.05-10.1-.08-15.14-.13q-27-.25-53.93-.52-23-.22-46-.5c-15.32-.18-30.64-.33-46-.53-8.56-.11-17.12-.28-25.68-.43-.42,0-.84,0-1.22-.06-.07-.14-.12-.21-.15-.28a.38.38,0,0,1,0-.25,9,9,0,0,1,.42-1.2q12.21-26.49,24.44-53a198.62,198.62,0,0,0,280.59-9.06C676.21,483.89,676.55,484.28,676.89,484.67Z"/><path class="cls-4" d="M711.93,429.39a307.21,307.21,0,0,1-35.65,50.67c-.56.65-1.12,1.29-1.69,1.93-14.32-15.12-42.36-40.28-84.62-53.52a199,199,0,0,0-180,32.27l21.84-47.33h2.53q36.6.27,73.19.52,24.66.21,49.31.51a3.26,3.26,0,0,0,2.55-.87c14.7-14.51,24.46-31.7,27.28-52.3,3.13-22.9-2.78-43.6-16.6-62.07A96.54,96.54,0,0,0,555,283.36,203.44,203.44,0,0,1,711.93,429.39Z"/><path class="cls-5" d="M674.59,482c.44.5.86,1,1.29,1.5-31,32.83-62,46.54-79.31,52.56-20.54,7.14-39,9.39-53.79,11.21a349.06,349.06,0,0,1-70.71,1.41L370.47,547q16-35.19,32.16-70.33,14.53-31.65,29.18-63.24l61.84.63c28.92-1.7,90.41-.87,146.74,38.18A207.65,207.65,0,0,1,674.59,482Z"/><path class="cls-6" d="M473.57,808.4l-1,0-44.68.5-44.16.52-44.68.51-44.93.52-44.43.51h-1.81c.36-.93.58-1.63.9-2.3q27.62-58.9,55.2-117.83a3.29,3.29,0,0,1,3.48-2.18c12.53-.11,25.06-.33,37.58-.53l1.71,0q14.63-.23,29.26-.51,18.6-.33,37.21-.67,14.64-.27,29.27-.52l52.63-.86c2.34,0,4.67-.09,7-.12l22.26-.4,12.6-.24c4.43-.09,8.88-.18,13.32-.25a3.92,3.92,0,0,0,2.79-1c.49-.44,1-.89,1.44-1.33,16.49-15.53,27.06-34.28,30.16-57,3.29-24.14-3-46-16.53-65.91-1.91-2.83-4.16-5.43-6.21-8.17a3.93,3.93,0,0,0-3.49-1.68c-5,.05-10.1-.08-15.14-.13q-27-.25-53.93-.52-23-.22-46-.5c-15.32-.18-30.64-.33-46-.53-8.56-.11-17.12-.28-25.68-.43-.42,0-.84,0-1.22-.06-.07-.14-.12-.21-.15-.28a.38.38,0,0,1,0-.25,9,9,0,0,1,.42-1.2q12.21-26.49,24.44-53L410,460.74l21.84-47.33h2.53q36.6.27,73.19.52,24.66.21,49.31.51a3.26,3.26,0,0,0,2.55-.87c14.7-14.51,24.46-31.7,27.28-52.3,3.13-22.9-2.78-43.6-16.6-62.07A96.54,96.54,0,0,0,555,283.36c-.83-.7-1.67-1.4-2.52-2.07a8.27,8.27,0,0,0-5.63-1.77q-15.5,0-31,.05H479.81l-115.59.08-19.9,0c-42.16.08-75.56.4-97.34.66L304.5,154.09c45.17-.48,76.55-.62,97.31-.65,36.53-.06,46.61-.11,66.78-.17l21.37-.09,13.56-.07q23.24-.13,46.49-.26,10.13,0,20.27,0,9,0,18,0a12.42,12.42,0,0,1,4.46.87,238,238,0,0,1,75.43,47.88c.36.34.72.67,1.07,1,24.75,23.62,43.25,51.36,54.25,84a180.24,180.24,0,0,1,9.36,50.29c1.29,30.46-5.15,59.33-18.11,86.81-.43.91-.86,1.82-1.3,2.72s-1,2-1.51,3a218.72,218.72,0,0,1-35.65,50.67c-.39.42-.76.86-1.2,1.37l-.49.56c.44.5.86,1,1.29,1.5s.67.79,1,1.18a221.08,221.08,0,0,1,34.43,53.6,209.59,209.59,0,0,1,9.56,25.46,184.73,184.73,0,0,1,7.87,46.42A186.89,186.89,0,0,1,710.33,699c-16.91,35.56-42.24,63.92-74.49,86.26A238.48,238.48,0,0,1,612,799.66c-3.58,1.91-7.2,3.74-10.85,5.52a21.51,21.51,0,0,1-8.75,2l-1.16,0q-11.18.07-22.35.17l-52.12.51Z"/></svg>